<svg width="48" height="48" viewBox="0 0 48 48" fill="none" xmlns="http://www.w3.org/2000/svg">
<path fill-rule="evenodd" clip-rule="evenodd" d="M18.1094 9.3359C24.4074 13.5345 30 22.663 30 31C30 38.1797 24.1797 44 17 44C9.8203 44 4 38.1797 4 31C4 22.663 9.59263 13.5345 15.8906 9.3359C16.5624 8.88803 17.4376 8.88803 18.1094 9.3359ZM17 13.473L16.9922 13.4798C12.1909 17.2915 8 24.5898 8 31C8 35.9706 12.0294 40 17 40C21.9706 40 26 35.9706 26 31C26 24.5898 21.8092 17.2915 17.0078 13.4798L17 13.473ZM38.1489 4.36289C41.2449 6.53553 44 11.3867 44 15.7368C44 19.7259 40.8896 23 37 23C33.1104 23 30 19.7259 30 15.7368C30 11.3867 32.7551 6.53553 35.8511 4.36289C36.5406 3.87904 37.4594 3.87904 38.1489 4.36289ZM37.003 8.6682C35.3719 10.4388 34 13.3095 34 15.7368C34 17.5613 35.3667 19 37 19C38.6333 19 40 17.5613 40 15.7368C40 13.3095 38.6281 10.4388 37.003 8.6682Z" fill="url(#paint0_linear_17_1969)"/>
<defs>
<linearGradient id="paint0_linear_17_1969" x1="24" y1="4" x2="24" y2="44" gradientUnits="userSpaceOnUse">
<stop stop-color="white" stop-opacity="0.8"/>
<stop offset="1" stop-color="white"/>
</linearGradient>
</defs>
</svg>
